M48
; DRILL file KiCad 10.0.5 date 2026-08-06T14:01:44
; FORMAT={-:-/ absolute / inch / decimal}
; #@! TF.CreationDate,2026-08-06T14:01:44+09:00
; #@! TF.GenerationSoftware,Kicad,Pcbnew,10.0.5
; #@! TF.FileFunction,Plated,1,2,PTH
FMAT,2
INCH
; #@! TA.AperFunction,Plated,PTH,ViaDrill
T1C0.0118
; #@! TA.AperFunction,Plated,PTH,ComponentDrill
T2C0.0157
; #@! TA.AperFunction,Plated,PTH,ComponentDrill
T3C0.0236
; #@! TA.AperFunction,Plated,PTH,ComponentDrill
T4C0.0276
%
G90
G05
T1
X3.6713Y-3.8071
X3.7067Y-3.4409
X3.7133Y-3.828
X3.7283Y-3.3386
X3.7283Y-3.3701
X3.7323Y-3.5669
X3.7362Y-3.6614
X3.7835Y-3.8661
X3.7874Y-3.7677
X3.8583Y-3.3425
X3.8583Y-3.5669
X3.8583Y-3.6614
X3.8898Y-3.5669
X3.9055Y-3.9409
X3.9213Y-3.5669
X3.937Y-3.3307
X3.937Y-3.9409
X3.9409Y-3.7992
X3.9528Y-3.5669
X3.9685Y-3.9409
X3.9843Y-3.6654
X4.0315Y-3.4331
X4.0433Y-4.0118
X4.0669Y-3.8622
X4.0965Y-3.7402
X4.0965Y-3.7618
X4.0965Y-3.937
X4.0966Y-3.8741
X4.1319Y-3.874
X4.1319Y-4.0472
X4.1339Y-3.937
X4.1575Y-3.6181
X4.1614Y-3.6575
X4.1654Y-3.4488
X4.1654Y-3.5236
X4.1831Y-4.0059
X4.2028Y-3.8425
T2
X4.1929Y-3.2124
X4.1929Y-3.2624
X4.1929Y-3.3124
X4.1929Y-3.3624
T4
X3.7008Y-4.1732
X3.7008Y-4.252
T3
G00X3.7669Y-4.0795
M15
G01X3.7669Y-4.1228
M16
G05
G00X3.7669Y-4.2539
M15
G01X3.7669Y-4.2776
M16
G05
G00X4.1071Y-4.0795
M15
G01X4.1071Y-4.1228
M16
G05
G00X4.1071Y-4.2539
M15
G01X4.1071Y-4.2776
M16
G05
M30
