%TF.GenerationSoftware,KiCad,Pcbnew,10.0.5*%
%TF.CreationDate,2026-08-06T14:01:44+09:00*%
%TF.ProjectId,BikeTracker,42696b65-5472-4616-936b-65722e6b6963,rev?*%
%TF.SameCoordinates,Original*%
%TF.FileFunction,Paste,Top*%
%TF.FilePolarity,Positive*%
%FSLAX46Y46*%
G04 Gerber Fmt 4.6, Leading zero omitted, Abs format (unit mm)*
G04 Created by KiCad (PCBNEW 10.0.5) date 2026-08-06 14:01:44*
%MOMM*%
%LPD*%
G01*
G04 APERTURE LIST*
G04 Aperture macros list*
%AMRoundRect*
0 Rectangle with rounded corners*
0 $1 Rounding radius*
0 $2 $3 $4 $5 $6 $7 $8 $9 X,Y pos of 4 corners*
0 Add a 4 corners polygon primitive as box body*
4,1,4,$2,$3,$4,$5,$6,$7,$8,$9,$2,$3,0*
0 Add four circle primitives for the rounded corners*
1,1,$1+$1,$2,$3*
1,1,$1+$1,$4,$5*
1,1,$1+$1,$6,$7*
1,1,$1+$1,$8,$9*
0 Add four rect primitives between the rounded corners*
20,1,$1+$1,$2,$3,$4,$5,0*
20,1,$1+$1,$4,$5,$6,$7,0*
20,1,$1+$1,$6,$7,$8,$9,0*
20,1,$1+$1,$8,$9,$2,$3,0*%
%AMFreePoly0*
4,1,6,0.180000,0.075000,0.000000,-0.105000,-0.220000,-0.105000,-0.220000,0.105000,0.180000,0.105000,0.180000,0.075000,0.180000,0.075000,$1*%
%AMFreePoly1*
4,1,6,0.180000,-0.075000,0.180000,-0.105000,-0.220000,-0.105000,-0.220000,0.105000,0.000000,0.105000,0.180000,-0.075000,0.180000,-0.075000,$1*%
%AMFreePoly2*
4,1,6,0.220000,-0.105000,0.000000,-0.105000,-0.180000,0.075000,-0.180000,0.105000,0.220000,0.105000,0.220000,-0.105000,0.220000,-0.105000,$1*%
%AMFreePoly3*
4,1,6,0.220000,-0.105000,-0.180000,-0.105000,-0.180000,-0.075000,0.000000,0.105000,0.220000,0.105000,0.220000,-0.105000,0.220000,-0.105000,$1*%
G04 Aperture macros list end*
%ADD10RoundRect,0.218750X0.256250X-0.218750X0.256250X0.218750X-0.256250X0.218750X-0.256250X-0.218750X0*%
%ADD11RoundRect,0.135000X-0.185000X0.135000X-0.185000X-0.135000X0.185000X-0.135000X0.185000X0.135000X0*%
%ADD12RoundRect,0.135000X0.185000X-0.135000X0.185000X0.135000X-0.185000X0.135000X-0.185000X-0.135000X0*%
%ADD13RoundRect,0.140000X-0.140000X-0.170000X0.140000X-0.170000X0.140000X0.170000X-0.140000X0.170000X0*%
%ADD14RoundRect,0.140000X0.140000X0.170000X-0.140000X0.170000X-0.140000X-0.170000X0.140000X-0.170000X0*%
%ADD15R,0.900000X1.700000*%
%ADD16RoundRect,0.140000X0.205000X0.140000X-0.205000X0.140000X-0.205000X-0.140000X0.205000X-0.140000X0*%
%ADD17RoundRect,0.062500X0.337500X0.062500X-0.337500X0.062500X-0.337500X-0.062500X0.337500X-0.062500X0*%
%ADD18RoundRect,0.218750X-0.256250X0.218750X-0.256250X-0.218750X0.256250X-0.218750X0.256250X0.218750X0*%
%ADD19RoundRect,0.140000X0.170000X-0.140000X0.170000X0.140000X-0.170000X0.140000X-0.170000X-0.140000X0*%
%ADD20RoundRect,0.225000X0.225000X0.250000X-0.225000X0.250000X-0.225000X-0.250000X0.225000X-0.250000X0*%
%ADD21RoundRect,0.087500X-0.225000X-0.087500X0.225000X-0.087500X0.225000X0.087500X-0.225000X0.087500X0*%
%ADD22RoundRect,0.087500X-0.087500X-0.225000X0.087500X-0.225000X0.087500X0.225000X-0.087500X0.225000X0*%
%ADD23RoundRect,0.112500X-0.187500X-0.112500X0.187500X-0.112500X0.187500X0.112500X-0.187500X0.112500X0*%
%ADD24R,1.000000X1.800000*%
%ADD25FreePoly0,270.000000*%
%ADD26FreePoly1,270.000000*%
%ADD27FreePoly2,270.000000*%
%ADD28FreePoly3,270.000000*%
%ADD29RoundRect,0.080000X-0.205061X0.000000X0.000000X-0.205061X0.205061X0.000000X0.000000X0.205061X0*%
%ADD30R,0.600000X0.400000*%
%ADD31R,0.400000X0.600000*%
%ADD32RoundRect,0.075000X-0.075000X-0.200000X0.075000X-0.200000X0.075000X0.200000X-0.075000X0.200000X0*%
%ADD33RoundRect,0.150000X-0.150000X-0.400000X0.150000X-0.400000X0.150000X0.400000X-0.150000X0.400000X0*%
%ADD34RoundRect,0.075000X-0.075000X-0.575000X0.075000X-0.575000X0.075000X0.575000X-0.075000X0.575000X0*%
G04 APERTURE END LIST*
D10*
%TO.C,D8*%
X106100000Y-105112499D03*
X106100000Y-106687501D03*
%TD*%
D11*
%TO.C,R6*%
X93700000Y-84490000D03*
X93700000Y-85510000D03*
%TD*%
D12*
%TO.C,R13*%
X97100000Y-99860000D03*
X97100000Y-98840000D03*
%TD*%
D13*
%TO.C,C1*%
X102320000Y-94700000D03*
X103280000Y-94700000D03*
%TD*%
D14*
%TO.C,C4*%
X95680000Y-96200000D03*
X94720000Y-96200000D03*
%TD*%
D15*
%TO.C,SW2*%
X101700000Y-98400000D03*
X98300000Y-98400000D03*
%TD*%
D16*
%TO.C,U7*%
X104925000Y-99550000D03*
X104925000Y-98850000D03*
X104075000Y-99550000D03*
X104075000Y-98850000D03*
D17*
X105950000Y-99950000D03*
X105950000Y-99450000D03*
X105950000Y-98950000D03*
X105950000Y-98450000D03*
X103050000Y-98450000D03*
X103050000Y-98950000D03*
X103050000Y-99450000D03*
X103050000Y-99950000D03*
%TD*%
D18*
%TO.C,D5*%
X93500000Y-86712500D03*
X93500000Y-88287500D03*
%TD*%
D19*
%TO.C,C11*%
X93700000Y-94280000D03*
X93700000Y-93320000D03*
%TD*%
D11*
%TO.C,R2*%
X106300000Y-89190000D03*
X106300000Y-90210000D03*
%TD*%
D12*
%TO.C,R12*%
X95200000Y-99860000D03*
X95200000Y-98840000D03*
%TD*%
D11*
%TO.C,R11*%
X93700000Y-91390000D03*
X93700000Y-92410000D03*
%TD*%
D20*
%TO.C,C20*%
X105875000Y-97450000D03*
X104325000Y-97450000D03*
%TD*%
D19*
%TO.C,C5*%
X106300000Y-92780000D03*
X106300000Y-91820000D03*
%TD*%
D12*
%TO.C,R15*%
X96150000Y-99860000D03*
X96150000Y-98840000D03*
%TD*%
D11*
%TO.C,R3*%
X102000000Y-100890000D03*
X102000000Y-101910000D03*
%TD*%
D13*
%TO.C,C3*%
X96620000Y-96200000D03*
X97580000Y-96200000D03*
%TD*%
D20*
%TO.C,C12*%
X105825000Y-101000000D03*
X104275000Y-101000000D03*
%TD*%
D14*
%TO.C,C7*%
X103280000Y-95850000D03*
X102320000Y-95850000D03*
%TD*%
D21*
%TO.C,U2*%
X98837500Y-94250000D03*
X98837500Y-94750000D03*
X98837500Y-95250000D03*
X98837500Y-95750000D03*
D22*
X99500000Y-95912500D03*
X100000000Y-95912500D03*
X100500000Y-95912500D03*
D21*
X101162500Y-95750000D03*
X101162500Y-95250000D03*
X101162500Y-94750000D03*
X101162500Y-94250000D03*
D22*
X100500000Y-94087500D03*
X100000000Y-94087500D03*
X99500000Y-94087500D03*
%TD*%
D18*
%TO.C,D3*%
X93500000Y-81712500D03*
X93500000Y-83287500D03*
%TD*%
D11*
%TO.C,R14*%
X103000000Y-100890000D03*
X103000000Y-101910000D03*
%TD*%
D23*
%TO.C,D2*%
X95100000Y-97550000D03*
X97200000Y-97550000D03*
%TD*%
D24*
%TO.C,X1*%
X97450000Y-94500000D03*
X94950000Y-94500000D03*
%TD*%
D25*
%TO.C,U9*%
X105325000Y-95322679D03*
D26*
X104675000Y-95322679D03*
D27*
X105325000Y-96182679D03*
D28*
X104675000Y-96182679D03*
D29*
X105000000Y-95752679D03*
%TD*%
D11*
%TO.C,R8*%
X93700000Y-89490000D03*
X93700000Y-90510000D03*
%TD*%
D20*
%TO.C,C10*%
X105875000Y-94250000D03*
X104325000Y-94250000D03*
%TD*%
D30*
%TO.C,U1*%
X95350000Y-81250000D03*
X95350000Y-82350000D03*
X95350000Y-83150000D03*
X95350000Y-84750000D03*
X96250000Y-85150000D03*
X95350000Y-85550000D03*
X96250000Y-85950000D03*
X95350000Y-86350000D03*
X96250000Y-86750000D03*
X95350000Y-87150000D03*
X96250000Y-87550000D03*
X95350000Y-87950000D03*
X96250000Y-88350000D03*
X95350000Y-88750000D03*
D31*
X95200000Y-92150000D03*
X96000000Y-92150000D03*
X96800000Y-92150000D03*
X97600000Y-92150000D03*
X98000000Y-91250000D03*
X98400000Y-92150000D03*
X98800000Y-91250000D03*
X99200000Y-92150000D03*
X99600000Y-91250000D03*
X100000000Y-92150000D03*
X100400000Y-91250000D03*
X100800000Y-92150000D03*
X101200000Y-91250000D03*
X101600000Y-92150000D03*
X102000000Y-91250000D03*
X102400000Y-92150000D03*
X103200000Y-92150000D03*
X104000000Y-92150000D03*
X104800000Y-92150000D03*
D30*
X104650000Y-91150000D03*
X104650000Y-90350000D03*
X103750000Y-89950000D03*
X104650000Y-89550000D03*
X103750000Y-89150000D03*
X104650000Y-88750000D03*
X103750000Y-88350000D03*
X104650000Y-87950000D03*
X103750000Y-87550000D03*
X103750000Y-86750000D03*
X104650000Y-86350000D03*
X103750000Y-85950000D03*
X104650000Y-85550000D03*
X103750000Y-85150000D03*
X104650000Y-84750000D03*
X103750000Y-84350000D03*
X103750000Y-83550000D03*
X104650000Y-83150000D03*
X103750000Y-82750000D03*
X104650000Y-82350000D03*
X103750000Y-81950000D03*
X104650000Y-81250000D03*
D31*
X98000000Y-85550000D03*
X98800000Y-85550000D03*
X99600000Y-85550000D03*
X100400000Y-85550000D03*
X101200000Y-85550000D03*
X102000000Y-85550000D03*
%TD*%
D11*
%TO.C,R4*%
X106300000Y-87290000D03*
X106300000Y-88310000D03*
%TD*%
%TO.C,R1*%
X98000000Y-100890000D03*
X98000000Y-101910000D03*
%TD*%
D32*
%TO.C,U11*%
X99000000Y-101785000D03*
X99500000Y-101785000D03*
X100000000Y-101785000D03*
X100500000Y-101785000D03*
X101000000Y-101785000D03*
X101000000Y-101015000D03*
X100500000Y-101015000D03*
X100000000Y-101015000D03*
X99500000Y-101015000D03*
X99000000Y-101015000D03*
%TD*%
D12*
%TO.C,R20*%
X105800000Y-103910000D03*
X105800000Y-102890000D03*
%TD*%
D13*
%TO.C,C2*%
X102320000Y-93750000D03*
X103280000Y-93750000D03*
%TD*%
D33*
%TO.C,J1*%
X96800000Y-103430000D03*
X97600000Y-103430000D03*
D34*
X98750000Y-103530000D03*
X99750000Y-103530000D03*
X100250000Y-103530000D03*
X101250000Y-103530000D03*
D33*
X102400000Y-103430000D03*
X103200000Y-103430000D03*
X103200000Y-103430000D03*
X102400000Y-103430000D03*
D34*
X101750000Y-103530000D03*
X100750000Y-103530000D03*
X99250000Y-103530000D03*
X98250000Y-103530000D03*
D33*
X97600000Y-103430000D03*
X96800000Y-103430000D03*
%TD*%
D11*
%TO.C,R10*%
X93700000Y-95190000D03*
X93700000Y-96210000D03*
%TD*%
M02*
